<?xml version="1.0" encoding="UTF-8" standalone="no"?><svg xmlns="http://www.w3.org/2000/svg" xmlns:xlink="http://www.w3.org/1999/xlink" contentScriptType="application/ecmascript" contentStyleType="text/css" height="549px" preserveAspectRatio="none" style="width:507px;height:549px;" version="1.1" viewBox="0 0 507 549" width="507px" zoomAndPan="magnify"><defs><filter height="300%" id="f14l1ob38qt7rz" width="300%" x="-1" y="-1"><feGaussianBlur result="blurOut" stdDeviation="2.0"/><feColorMatrix in="blurOut" result="blurOut2" type="matrix" values="0 0 0 0 0 0 0 0 0 0 0 0 0 0 0 0 0 0 .4 0"/><feOffset dx="4.0" dy="4.0" in="blurOut2" result="blurOut3"/><feBlend in="SourceGraphic" in2="blurOut3" mode="normal"/></filter></defs><g><!--MD5=[8cd5e3b0a1e8c0f2af8dc3a8e1b8639f]
class HistoricalEvent--><rect codeLine="1" fill="#FEFECE" filter="url(#f14l1ob38qt7rz)" height="119.1695" id="HistoricalEvent" style="stroke:#A80036;stroke-width:1.5;" width="108" x="7" y="129"/><ellipse cx="22" cy="145" fill="#ADD1B2" rx="11" ry="11" style="stroke:#A80036;stroke-width:1.0;"/><path d="M22.5469,147 L24.4219,147 L24.4219,150.4063 Q23.875,150.7969 23.0313,151.0156 Q22.1875,151.2344 21.3125,151.2344 Q20.1875,151.2344 19.1719,150.9063 Q18.1563,150.5781 17.3906,149.8438 Q16.625,149.0938 16.1719,147.9219 Q15.7188,146.7344 15.7188,145.0469 Q15.7188,143.2969 16.2344,142.125 Q16.75,140.9375 17.5625,140.2188 Q18.3906,139.4844 19.3906,139.1719 Q20.3906,138.8594 21.3594,138.8594 Q22.375,138.8594 23.0781,139.0313 Q23.7813,139.2031 24.25,139.4219 L24.25,142.9531 L22.375,142.9531 L22.375,141.0156 Q21.8438,140.9375 21.2969,140.9375 Q20.625,140.9375 20.0469,141.1875 Q19.4844,141.4219 19.0625,141.9375 Q18.6406,142.4531 18.3906,143.2344 Q18.1563,144 18.1563,145.0469 Q18.1563,145.9688 18.375,146.7344 Q18.6094,147.4844 19.0313,148.0313 Q19.4531,148.5625 20.0625,148.8594 Q20.6719,149.1563 21.4531,149.1563 Q22.0156,149.1563 22.5469,149.0625 L22.5469,147 Z " fill="#000000"/><text fill="#000000" font-family="sans-serif" font-size="12" lengthAdjust="spacing" textLength="76" x="36" y="149.452">HistoricalEvent</text><line style="stroke:#A80036;stroke-width:1.5;" x1="8" x2="114" y1="161" y2="161"/><text fill="#000000" font-family="sans-serif" font-size="11" lengthAdjust="spacing" textLength="61" x="13" y="176.1979">name: String</text><text fill="#000000" font-family="sans-serif" font-size="11" lengthAdjust="spacing" textLength="88" x="13" y="190.4318">description: String</text><text fill="#000000" font-family="sans-serif" font-size="11" lengthAdjust="spacing" textLength="76" x="13" y="204.6657">date: LocalDate</text><text fill="#000000" font-family="sans-serif" font-size="11" lengthAdjust="spacing" textLength="73" x="13" y="218.8996">location: String</text><text fill="#000000" font-family="sans-serif" font-size="11" lengthAdjust="spacing" textLength="62" x="13" y="233.1335">image: byte[]</text><line style="stroke:#A80036;stroke-width:1.5;" x1="8" x2="114" y1="240.1695" y2="240.1695"/><!--MD5=[9d310083877eb4099876c65f16768db1]
class HistoricalTimeline--><rect codeLine="9" fill="#FEFECE" filter="url(#f14l1ob38qt7rz)" height="62.2339" id="HistoricalTimeline" style="stroke:#A80036;stroke-width:1.5;" width="125" x="150.5" y="7"/><ellipse cx="165.5" cy="23" fill="#ADD1B2" rx="11" ry="11" style="stroke:#A80036;stroke-width:1.0;"/><path d="M166.0469,25 L167.9219,25 L167.9219,28.4063 Q167.375,28.7969 166.5313,29.0156 Q165.6875,29.2344 164.8125,29.2344 Q163.6875,29.2344 162.6719,28.9063 Q161.6563,28.5781 160.8906,27.8438 Q160.125,27.0938 159.6719,25.9219 Q159.2188,24.7344 159.2188,23.0469 Q159.2188,21.2969 159.7344,20.125 Q160.25,18.9375 161.0625,18.2188 Q161.8906,17.4844 162.8906,17.1719 Q163.8906,16.8594 164.8594,16.8594 Q165.875,16.8594 166.5781,17.0313 Q167.2813,17.2031 167.75,17.4219 L167.75,20.9531 L165.875,20.9531 L165.875,19.0156 Q165.3438,18.9375 164.7969,18.9375 Q164.125,18.9375 163.5469,19.1875 Q162.9844,19.4219 162.5625,19.9375 Q162.1406,20.4531 161.8906,21.2344 Q161.6563,22 161.6563,23.0469 Q161.6563,23.9688 161.875,24.7344 Q162.1094,25.4844 162.5313,26.0313 Q162.9531,26.5625 163.5625,26.8594 Q164.1719,27.1563 164.9531,27.1563 Q165.5156,27.1563 166.0469,27.0625 L166.0469,25 Z " fill="#000000"/><text fill="#000000" font-family="sans-serif" font-size="12" lengthAdjust="spacing" textLength="93" x="179.5" y="27.452">HistoricalTimeline</text><line style="stroke:#A80036;stroke-width:1.5;" x1="151.5" x2="274.5" y1="39" y2="39"/><text fill="#000000" font-family="sans-serif" font-size="11" lengthAdjust="spacing" textLength="61" x="156.5" y="54.1979">name: String</text><line style="stroke:#A80036;stroke-width:1.5;" x1="151.5" x2="274.5" y1="61.2339" y2="61.2339"/><!--MD5=[63288f4f4902411236839d652cc0809f]
class StudyGroup--><rect codeLine="15" fill="#FEFECE" filter="url(#f14l1ob38qt7rz)" height="62.2339" id="StudyGroup" style="stroke:#A80036;stroke-width:1.5;" width="90" x="284" y="473"/><ellipse cx="299" cy="489" fill="#ADD1B2" rx="11" ry="11" style="stroke:#A80036;stroke-width:1.0;"/><path d="M299.5469,491 L301.4219,491 L301.4219,494.4063 Q300.875,494.7969 300.0313,495.0156 Q299.1875,495.2344 298.3125,495.2344 Q297.1875,495.2344 296.1719,494.9063 Q295.1563,494.5781 294.3906,493.8438 Q293.625,493.0938 293.1719,491.9219 Q292.7188,490.7344 292.7188,489.0469 Q292.7188,487.2969 293.2344,486.125 Q293.75,484.9375 294.5625,484.2188 Q295.3906,483.4844 296.3906,483.1719 Q297.3906,482.8594 298.3594,482.8594 Q299.375,482.8594 300.0781,483.0313 Q300.7813,483.2031 301.25,483.4219 L301.25,486.9531 L299.375,486.9531 L299.375,485.0156 Q298.8438,484.9375 298.2969,484.9375 Q297.625,484.9375 297.0469,485.1875 Q296.4844,485.4219 296.0625,485.9375 Q295.6406,486.4531 295.3906,487.2344 Q295.1563,488 295.1563,489.0469 Q295.1563,489.9688 295.375,490.7344 Q295.6094,491.4844 296.0313,492.0313 Q296.4531,492.5625 297.0625,492.8594 Q297.6719,493.1563 298.4531,493.1563 Q299.0156,493.1563 299.5469,493.0625 L299.5469,491 Z " fill="#000000"/><text fill="#000000" font-family="sans-serif" font-size="12" lengthAdjust="spacing" textLength="58" x="313" y="493.452">StudyGroup</text><line style="stroke:#A80036;stroke-width:1.5;" x1="285" x2="373" y1="505" y2="505"/><text fill="#000000" font-family="sans-serif" font-size="11" lengthAdjust="spacing" textLength="61" x="290" y="520.1979">name: String</text><line style="stroke:#A80036;stroke-width:1.5;" x1="285" x2="373" y1="527.2339" y2="527.2339"/><!--MD5=[61a83f88cb8b7d3a80bc8c481f3736bf]
class Teacher--><rect codeLine="21" fill="#FEFECE" filter="url(#f14l1ob38qt7rz)" height="104.9356" id="Teacher" style="stroke:#A80036;stroke-width:1.5;" width="111" x="382.5" y="308"/><ellipse cx="415.05" cy="324" fill="#ADD1B2" rx="11" ry="11" style="stroke:#A80036;stroke-width:1.0;"/><path d="M415.5969,326 L417.4719,326 L417.4719,329.4063 Q416.925,329.7969 416.0813,330.0156 Q415.2375,330.2344 414.3625,330.2344 Q413.2375,330.2344 412.2219,329.9063 Q411.2063,329.5781 410.4406,328.8438 Q409.675,328.0938 409.2219,326.9219 Q408.7688,325.7344 408.7688,324.0469 Q408.7688,322.2969 409.2844,321.125 Q409.8,319.9375 410.6125,319.2188 Q411.4406,318.4844 412.4406,318.1719 Q413.4406,317.8594 414.4094,317.8594 Q415.425,317.8594 416.1281,318.0313 Q416.8313,318.2031 417.3,318.4219 L417.3,321.9531 L415.425,321.9531 L415.425,320.0156 Q414.8938,319.9375 414.3469,319.9375 Q413.675,319.9375 413.0969,320.1875 Q412.5344,320.4219 412.1125,320.9375 Q411.6906,321.4531 411.4406,322.2344 Q411.2063,323 411.2063,324.0469 Q411.2063,324.9688 411.425,325.7344 Q411.6594,326.4844 412.0813,327.0313 Q412.5031,327.5625 413.1125,327.8594 Q413.7219,328.1563 414.5031,328.1563 Q415.0656,328.1563 415.5969,328.0625 L415.5969,326 Z " fill="#000000"/><text fill="#000000" font-family="sans-serif" font-size="12" lengthAdjust="spacing" textLength="40" x="432.95" y="328.452">Teacher</text><line style="stroke:#A80036;stroke-width:1.5;" x1="383.5" x2="492.5" y1="340" y2="340"/><text fill="#000000" font-family="sans-serif" font-size="11" lengthAdjust="spacing" textLength="82" x="388.5" y="355.1979">firstName: String</text><text fill="#000000" font-family="sans-serif" font-size="11" lengthAdjust="spacing" textLength="80" x="388.5" y="369.4318">lastName: String</text><text fill="#000000" font-family="sans-serif" font-size="11" lengthAdjust="spacing" textLength="82" x="388.5" y="383.6657">username: String</text><text fill="#000000" font-family="sans-serif" font-size="11" lengthAdjust="spacing" textLength="99" x="388.5" y="397.8996">hashedPassword: int</text><line style="stroke:#A80036;stroke-width:1.5;" x1="383.5" x2="492.5" y1="404.9356" y2="404.9356"/><!--MD5=[d6181cb537bdc20c0a3007a98a56832d]
class Student--><rect codeLine="31" fill="#FEFECE" filter="url(#f14l1ob38qt7rz)" height="104.9356" id="Student" style="stroke:#A80036;stroke-width:1.5;" width="111" x="161.5" y="308"/><ellipse cx="194.5" cy="324" fill="#ADD1B2" rx="11" ry="11" style="stroke:#A80036;stroke-width:1.0;"/><path d="M195.0469,326 L196.9219,326 L196.9219,329.4063 Q196.375,329.7969 195.5313,330.0156 Q194.6875,330.2344 193.8125,330.2344 Q192.6875,330.2344 191.6719,329.9063 Q190.6563,329.5781 189.8906,328.8438 Q189.125,328.0938 188.6719,326.9219 Q188.2188,325.7344 188.2188,324.0469 Q188.2188,322.2969 188.7344,321.125 Q189.25,319.9375 190.0625,319.2188 Q190.8906,318.4844 191.8906,318.1719 Q192.8906,317.8594 193.8594,317.8594 Q194.875,317.8594 195.5781,318.0313 Q196.2813,318.2031 196.75,318.4219 L196.75,321.9531 L194.875,321.9531 L194.875,320.0156 Q194.3438,319.9375 193.7969,319.9375 Q193.125,319.9375 192.5469,320.1875 Q191.9844,320.4219 191.5625,320.9375 Q191.1406,321.4531 190.8906,322.2344 Q190.6563,323 190.6563,324.0469 Q190.6563,324.9688 190.875,325.7344 Q191.1094,326.4844 191.5313,327.0313 Q191.9531,327.5625 192.5625,327.8594 Q193.1719,328.1563 193.9531,328.1563 Q194.5156,328.1563 195.0469,328.0625 L195.0469,326 Z " fill="#000000"/><text fill="#000000" font-family="sans-serif" font-size="12" lengthAdjust="spacing" textLength="39" x="212.5" y="328.452">Student</text><line style="stroke:#A80036;stroke-width:1.5;" x1="162.5" x2="271.5" y1="340" y2="340"/><text fill="#000000" font-family="sans-serif" font-size="11" lengthAdjust="spacing" textLength="82" x="167.5" y="355.1979">firstName: String</text><text fill="#000000" font-family="sans-serif" font-size="11" lengthAdjust="spacing" textLength="80" x="167.5" y="369.4318">lastName: String</text><text fill="#000000" font-family="sans-serif" font-size="11" lengthAdjust="spacing" textLength="82" x="167.5" y="383.6657">username: String</text><text fill="#000000" font-family="sans-serif" font-size="11" lengthAdjust="spacing" textLength="99" x="167.5" y="397.8996">hashedPassword: int</text><line style="stroke:#A80036;stroke-width:1.5;" x1="162.5" x2="271.5" y1="404.9356" y2="404.9356"/><!--MD5=[f084401825e6e7907ed6e891616fc3c5]
class TimelineComment--><rect codeLine="40" fill="#FEFECE" filter="url(#f14l1ob38qt7rz)" height="62.2339" id="TimelineComment" style="stroke:#A80036;stroke-width:1.5;" width="126" x="150" y="157.5"/><ellipse cx="165" cy="173.5" fill="#ADD1B2" rx="11" ry="11" style="stroke:#A80036;stroke-width:1.0;"/><path d="M165.5469,175.5 L167.4219,175.5 L167.4219,178.9063 Q166.875,179.2969 166.0313,179.5156 Q165.1875,179.7344 164.3125,179.7344 Q163.1875,179.7344 162.1719,179.4063 Q161.1563,179.0781 160.3906,178.3438 Q159.625,177.5938 159.1719,176.4219 Q158.7188,175.2344 158.7188,173.5469 Q158.7188,171.7969 159.2344,170.625 Q159.75,169.4375 160.5625,168.7188 Q161.3906,167.9844 162.3906,167.6719 Q163.3906,167.3594 164.3594,167.3594 Q165.375,167.3594 166.0781,167.5313 Q166.7813,167.7031 167.25,167.9219 L167.25,171.4531 L165.375,171.4531 L165.375,169.5156 Q164.8438,169.4375 164.2969,169.4375 Q163.625,169.4375 163.0469,169.6875 Q162.4844,169.9219 162.0625,170.4375 Q161.6406,170.9531 161.3906,171.7344 Q161.1563,172.5 161.1563,173.5469 Q161.1563,174.4688 161.375,175.2344 Q161.6094,175.9844 162.0313,176.5313 Q162.4531,177.0625 163.0625,177.3594 Q163.6719,177.6563 164.4531,177.6563 Q165.0156,177.6563 165.5469,177.5625 L165.5469,175.5 Z " fill="#000000"/><text fill="#000000" font-family="sans-serif" font-size="12" lengthAdjust="spacing" textLength="94" x="179" y="177.952">TimelineComment</text><line style="stroke:#A80036;stroke-width:1.5;" x1="151" x2="275" y1="189.5" y2="189.5"/><text fill="#000000" font-family="sans-serif" font-size="11" lengthAdjust="spacing" textLength="53" x="156" y="204.6979">text: String</text><line style="stroke:#A80036;stroke-width:1.5;" x1="151" x2="275" y1="211.7339" y2="211.7339"/><!--MD5=[432a29c9e97107b62cf312120324d123]
reverse link HistoricalTimeline to HistoricalEvent--><path codeLine="13" d="M172.8,78.27 C155.13,95.54 134.11,116.07 115.09,134.65 " fill="none" id="HistoricalTimeline-backto-HistoricalEvent" style="stroke:#A80036;stroke-width:1.0;"/><polygon fill="#A80036" points="182.24,69.05,175.1529,70.3817,173.6564,77.4358,180.7435,76.1041,182.24,69.05" style="stroke:#A80036;stroke-width:1.0;"/><text fill="#000000" font-family="sans-serif" font-size="13" lengthAdjust="spacing" textLength="7" x="168.1739" y="90.3987">1</text><text fill="#000000" font-family="sans-serif" font-size="13" lengthAdjust="spacing" textLength="5" x="123.048" y="123.2322">*</text><!--MD5=[507c5adb8118b7c0ab03724d0c99733c]
reverse link StudyGroup to HistoricalTimeline--><path codeLine="19" d="M333.27,459.46 C338.53,387.4 341.53,240.27 293,129 C283.05,106.2 265.07,85.15 248.67,69.15 " fill="none" id="StudyGroup-backto-HistoricalTimeline" style="stroke:#A80036;stroke-width:1.0;"/><polygon fill="#A80036" points="332.2,472.83,336.6685,467.1702,333.1627,460.8687,328.6942,466.5284,332.2,472.83" style="stroke:#A80036;stroke-width:1.0;"/><text fill="#000000" font-family="sans-serif" font-size="13" lengthAdjust="spacing" textLength="7" x="325.1344" y="461.5599">1</text><text fill="#000000" font-family="sans-serif" font-size="13" lengthAdjust="spacing" textLength="5" x="250.5113" y="90.5193">*</text><!--MD5=[fa493631e5f448847da3524dd9664e8c]
reverse link Teacher to StudyGroup--><path codeLine="28" d="M389.95,423.87 C376.83,440.91 363.2,458.6 352.16,472.93 " fill="none" id="Teacher-backto-StudyGroup" style="stroke:#A80036;stroke-width:1.0;"/><polygon fill="#A80036" points="398.03,413.39,391.2005,415.7046,390.7103,422.899,397.5398,420.5844,398.03,413.39" style="stroke:#A80036;stroke-width:1.0;"/><text fill="#000000" font-family="sans-serif" font-size="13" lengthAdjust="spacing" textLength="7" x="385.7321" y="434.099">1</text><text fill="#000000" font-family="sans-serif" font-size="13" lengthAdjust="spacing" textLength="5" x="351.9376" y="461.1971">*</text><!--MD5=[62d60d2657533e49a0a1cbd9f193ca73]
link Student to StudyGroup--><path codeLine="38" d="M265.5147,422.8015 C265.5147,422.8015 297.7536,463.5198 297.7536,463.5198 " fill="none" id="Student-StudyGroup" style="stroke:#A80036;stroke-width:1.0;"/><polygon fill="#FFFFFF" points="305.2,472.93,304.6135,465.7428,297.7536,463.5198,298.3401,470.7071,305.2,472.93" style="stroke:#A80036;stroke-width:1.0;"/><polygon fill="#FFFFFF" points="258.07,413.39,258.6552,420.5773,265.5147,422.8015,264.9295,415.6142,258.07,413.39" style="stroke:#A80036;stroke-width:1.0;"/><text fill="#000000" font-family="sans-serif" font-size="13" lengthAdjust="spacing" textLength="5" x="257.7707" y="434.099">*</text><text fill="#000000" font-family="sans-serif" font-size="13" lengthAdjust="spacing" textLength="5" x="294.1181" y="461.1971">*</text><!--MD5=[86d78f9b59e968d2ac395e2b5e8ee427]
reverse link HistoricalTimeline to TimelineComment--><path codeLine="44" d="M213,82.2 C213,106.36 213,135.87 213,157.49 " fill="none" id="HistoricalTimeline-backto-TimelineComment" style="stroke:#A80036;stroke-width:1.0;"/><polygon fill="#A80036" points="213,69.05,209,75.05,213,81.05,217,75.05,213,69.05" style="stroke:#A80036;stroke-width:1.0;"/><text fill="#000000" font-family="sans-serif" font-size="13" lengthAdjust="spacing" textLength="7" x="205.2781" y="90.3987">1</text><text fill="#000000" font-family="sans-serif" font-size="13" lengthAdjust="spacing" textLength="5" x="207.4219" y="145.7709">*</text><!--MD5=[220ece597e24fac543ff77f264b5c98d]
reverse link TimelineComment to Student--><path codeLine="45" d="M214.01,232.62 C214.55,255.49 215.22,283.76 215.78,307.8 " fill="none" id="TimelineComment-backto-Student" style="stroke:#A80036;stroke-width:1.0;"/><polygon fill="#FFFFFF" points="213.71,219.5,209.8495,225.5907,213.9868,231.4968,217.8474,225.4061,213.71,219.5" style="stroke:#A80036;stroke-width:1.0;"/><text fill="#000000" font-family="sans-serif" font-size="13" lengthAdjust="spacing" textLength="5" x="208.3408" y="240.8384">*</text><text fill="#000000" font-family="sans-serif" font-size="13" lengthAdjust="spacing" textLength="7" x="208.1163" y="296.5604">1</text><!--MD5=[f0ba1100488a5c497baae62b9b3f2838]
@startuml
class HistoricalEvent {
  name: String
  description: String
  date: LocalDate
  location: String
  image: byte[]
}

class HistoricalTimeline {
  name: String
}

HistoricalTimeline "1" *- - "*" HistoricalEvent

class StudyGroup {
  name: String
}

StudyGroup "1" *- - "*" HistoricalTimeline

class Teacher {
  firstName: String
  lastName: String
  username: String
  hashedPassword: int
}

Teacher "1" *- - "*" StudyGroup


class Student {
  firstName: String
  lastName: String
  username: String
  hashedPassword: int
}

Student "*" o- -o "*" StudyGroup

class TimelineComment {
  text: String
}

HistoricalTimeline "1" *- - "*" TimelineComment
TimelineComment "*" o- - "1" Student
@enduml

PlantUML version 1.2021.00(Sun Jan 10 11:25:05 CET 2021)
(GPL source distribution)
Java Runtime: OpenJDK Runtime Environment
JVM: OpenJDK 64-Bit Server VM
Default Encoding: UTF-8
Language: en
Country: US
--></g></svg>