<?xml version="1.0" encoding="UTF-8" standalone="no"?><svg xmlns="http://www.w3.org/2000/svg" xmlns:xlink="http://www.w3.org/1999/xlink" contentScriptType="application/ecmascript" contentStyleType="text/css" height="563px" preserveAspectRatio="none" style="width:346px;height:563px;" version="1.1" viewBox="0 0 346 563" width="346px" zoomAndPan="magnify"><defs><filter height="300%" id="f21s0y3vwhoe1" width="300%" x="-1" y="-1"><feGaussianBlur result="blurOut" stdDeviation="2.0"/><feColorMatrix in="blurOut" result="blurOut2" type="matrix" values="0 0 0 0 0 0 0 0 0 0 0 0 0 0 0 0 0 0 .4 0"/><feOffset dx="4.0" dy="4.0" in="blurOut2" result="blurOut3"/><feBlend in="SourceGraphic" in2="blurOut3" mode="normal"/></filter></defs><g><!--MD5=[8cd5e3b0a1e8c0f2af8dc3a8e1b8639f]
class HistoricalEvent--><rect codeLine="1" fill="#FEFECE" filter="url(#f21s0y3vwhoe1)" height="119.1695" id="HistoricalEvent" style="stroke:#A80036;stroke-width:1.5;" width="108" x="7" y="129"/><ellipse cx="22" cy="145" fill="#ADD1B2" rx="11" ry="11" style="stroke:#A80036;stroke-width:1.0;"/><path d="M22.5469,147 L24.4219,147 L24.4219,150.4063 Q23.875,150.7969 23.0313,151.0156 Q22.1875,151.2344 21.3125,151.2344 Q20.1875,151.2344 19.1719,150.9063 Q18.1563,150.5781 17.3906,149.8438 Q16.625,149.0938 16.1719,147.9219 Q15.7188,146.7344 15.7188,145.0469 Q15.7188,143.2969 16.2344,142.125 Q16.75,140.9375 17.5625,140.2188 Q18.3906,139.4844 19.3906,139.1719 Q20.3906,138.8594 21.3594,138.8594 Q22.375,138.8594 23.0781,139.0313 Q23.7813,139.2031 24.25,139.4219 L24.25,142.9531 L22.375,142.9531 L22.375,141.0156 Q21.8438,140.9375 21.2969,140.9375 Q20.625,140.9375 20.0469,141.1875 Q19.4844,141.4219 19.0625,141.9375 Q18.6406,142.4531 18.3906,143.2344 Q18.1563,144 18.1563,145.0469 Q18.1563,145.9688 18.375,146.7344 Q18.6094,147.4844 19.0313,148.0313 Q19.4531,148.5625 20.0625,148.8594 Q20.6719,149.1563 21.4531,149.1563 Q22.0156,149.1563 22.5469,149.0625 L22.5469,147 Z " fill="#000000"/><text fill="#000000" font-family="sans-serif" font-size="12" lengthAdjust="spacing" textLength="76" x="36" y="149.452">HistoricalEvent</text><line style="stroke:#A80036;stroke-width:1.5;" x1="8" x2="114" y1="161" y2="161"/><text fill="#000000" font-family="sans-serif" font-size="11" lengthAdjust="spacing" textLength="61" x="13" y="176.1979">name: String</text><text fill="#000000" font-family="sans-serif" font-size="11" lengthAdjust="spacing" textLength="88" x="13" y="190.4318">description: String</text><text fill="#000000" font-family="sans-serif" font-size="11" lengthAdjust="spacing" textLength="76" x="13" y="204.6657">date: LocalDate</text><text fill="#000000" font-family="sans-serif" font-size="11" lengthAdjust="spacing" textLength="73" x="13" y="218.8996">location: String</text><text fill="#000000" font-family="sans-serif" font-size="11" lengthAdjust="spacing" textLength="62" x="13" y="233.1335">image: byte[]</text><line style="stroke:#A80036;stroke-width:1.5;" x1="8" x2="114" y1="240.1695" y2="240.1695"/><!--MD5=[9d310083877eb4099876c65f16768db1]
class HistoricalTimeline--><rect codeLine="9" fill="#FEFECE" filter="url(#f21s0y3vwhoe1)" height="62.2339" id="HistoricalTimeline" style="stroke:#A80036;stroke-width:1.5;" width="125" x="150.5" y="7"/><ellipse cx="165.5" cy="23" fill="#ADD1B2" rx="11" ry="11" style="stroke:#A80036;stroke-width:1.0;"/><path d="M166.0469,25 L167.9219,25 L167.9219,28.4063 Q167.375,28.7969 166.5313,29.0156 Q165.6875,29.2344 164.8125,29.2344 Q163.6875,29.2344 162.6719,28.9063 Q161.6563,28.5781 160.8906,27.8438 Q160.125,27.0938 159.6719,25.9219 Q159.2188,24.7344 159.2188,23.0469 Q159.2188,21.2969 159.7344,20.125 Q160.25,18.9375 161.0625,18.2188 Q161.8906,17.4844 162.8906,17.1719 Q163.8906,16.8594 164.8594,16.8594 Q165.875,16.8594 166.5781,17.0313 Q167.2813,17.2031 167.75,17.4219 L167.75,20.9531 L165.875,20.9531 L165.875,19.0156 Q165.3438,18.9375 164.7969,18.9375 Q164.125,18.9375 163.5469,19.1875 Q162.9844,19.4219 162.5625,19.9375 Q162.1406,20.4531 161.8906,21.2344 Q161.6563,22 161.6563,23.0469 Q161.6563,23.9688 161.875,24.7344 Q162.1094,25.4844 162.5313,26.0313 Q162.9531,26.5625 163.5625,26.8594 Q164.1719,27.1563 164.9531,27.1563 Q165.5156,27.1563 166.0469,27.0625 L166.0469,25 Z " fill="#000000"/><text fill="#000000" font-family="sans-serif" font-size="12" lengthAdjust="spacing" textLength="93" x="179.5" y="27.452">HistoricalTimeline</text><line style="stroke:#A80036;stroke-width:1.5;" x1="151.5" x2="274.5" y1="39" y2="39"/><text fill="#000000" font-family="sans-serif" font-size="11" lengthAdjust="spacing" textLength="61" x="156.5" y="54.1979">name: String</text><line style="stroke:#A80036;stroke-width:1.5;" x1="151.5" x2="274.5" y1="61.2339" y2="61.2339"/><!--MD5=[63288f4f4902411236839d652cc0809f]
class StudyGroup--><rect codeLine="15" fill="#FEFECE" filter="url(#f21s0y3vwhoe1)" height="62.2339" id="StudyGroup" style="stroke:#A80036;stroke-width:1.5;" width="90" x="225" y="487"/><ellipse cx="240" cy="503" fill="#ADD1B2" rx="11" ry="11" style="stroke:#A80036;stroke-width:1.0;"/><path d="M240.5469,505 L242.4219,505 L242.4219,508.4063 Q241.875,508.7969 241.0313,509.0156 Q240.1875,509.2344 239.3125,509.2344 Q238.1875,509.2344 237.1719,508.9063 Q236.1563,508.5781 235.3906,507.8438 Q234.625,507.0938 234.1719,505.9219 Q233.7188,504.7344 233.7188,503.0469 Q233.7188,501.2969 234.2344,500.125 Q234.75,498.9375 235.5625,498.2188 Q236.3906,497.4844 237.3906,497.1719 Q238.3906,496.8594 239.3594,496.8594 Q240.375,496.8594 241.0781,497.0313 Q241.7813,497.2031 242.25,497.4219 L242.25,500.9531 L240.375,500.9531 L240.375,499.0156 Q239.8438,498.9375 239.2969,498.9375 Q238.625,498.9375 238.0469,499.1875 Q237.4844,499.4219 237.0625,499.9375 Q236.6406,500.4531 236.3906,501.2344 Q236.1563,502 236.1563,503.0469 Q236.1563,503.9688 236.375,504.7344 Q236.6094,505.4844 237.0313,506.0313 Q237.4531,506.5625 238.0625,506.8594 Q238.6719,507.1563 239.4531,507.1563 Q240.0156,507.1563 240.5469,507.0625 L240.5469,505 Z " fill="#000000"/><text fill="#000000" font-family="sans-serif" font-size="12" lengthAdjust="spacing" textLength="58" x="254" y="507.452">StudyGroup</text><line style="stroke:#A80036;stroke-width:1.5;" x1="226" x2="314" y1="519" y2="519"/><text fill="#000000" font-family="sans-serif" font-size="11" lengthAdjust="spacing" textLength="61" x="231" y="534.1979">name: String</text><line style="stroke:#A80036;stroke-width:1.5;" x1="226" x2="314" y1="541.2339" y2="541.2339"/><!--MD5=[3fd616f346a44cd59a91eb10b19e157c]
class User--><rect codeLine="21" fill="#FEFECE" filter="url(#f21s0y3vwhoe1)" height="119.1695" id="User" style="stroke:#A80036;stroke-width:1.5;" width="127" x="148.5" y="308"/><ellipse cx="196.25" cy="324" fill="#ADD1B2" rx="11" ry="11" style="stroke:#A80036;stroke-width:1.0;"/><path d="M196.7969,326 L198.6719,326 L198.6719,329.4063 Q198.125,329.7969 197.2813,330.0156 Q196.4375,330.2344 195.5625,330.2344 Q194.4375,330.2344 193.4219,329.9063 Q192.4063,329.5781 191.6406,328.8438 Q190.875,328.0938 190.4219,326.9219 Q189.9688,325.7344 189.9688,324.0469 Q189.9688,322.2969 190.4844,321.125 Q191,319.9375 191.8125,319.2188 Q192.6406,318.4844 193.6406,318.1719 Q194.6406,317.8594 195.6094,317.8594 Q196.625,317.8594 197.3281,318.0313 Q198.0313,318.2031 198.5,318.4219 L198.5,321.9531 L196.625,321.9531 L196.625,320.0156 Q196.0938,319.9375 195.5469,319.9375 Q194.875,319.9375 194.2969,320.1875 Q193.7344,320.4219 193.3125,320.9375 Q192.8906,321.4531 192.6406,322.2344 Q192.4063,323 192.4063,324.0469 Q192.4063,324.9688 192.625,325.7344 Q192.8594,326.4844 193.2813,327.0313 Q193.7031,327.5625 194.3125,327.8594 Q194.9219,328.1563 195.7031,328.1563 Q196.2656,328.1563 196.7969,328.0625 L196.7969,326 Z " fill="#000000"/><text fill="#000000" font-family="sans-serif" font-size="12" lengthAdjust="spacing" textLength="23" x="216.75" y="328.452">User</text><line style="stroke:#A80036;stroke-width:1.5;" x1="149.5" x2="274.5" y1="340" y2="340"/><text fill="#000000" font-family="sans-serif" font-size="11" lengthAdjust="spacing" textLength="91" x="154.5" y="355.1979">isTeacher: Boolean</text><text fill="#000000" font-family="sans-serif" font-size="11" lengthAdjust="spacing" textLength="82" x="154.5" y="369.4318">firstName: String</text><text fill="#000000" font-family="sans-serif" font-size="11" lengthAdjust="spacing" textLength="80" x="154.5" y="383.6657">lastName: String</text><text fill="#000000" font-family="sans-serif" font-size="11" lengthAdjust="spacing" textLength="82" x="154.5" y="397.8996">username: String</text><text fill="#000000" font-family="sans-serif" font-size="11" lengthAdjust="spacing" textLength="115" x="154.5" y="412.1335">hashedPassword: String</text><line style="stroke:#A80036;stroke-width:1.5;" x1="149.5" x2="274.5" y1="419.1695" y2="419.1695"/><!--MD5=[f084401825e6e7907ed6e891616fc3c5]
class TimelineComment--><rect codeLine="31" fill="#FEFECE" filter="url(#f21s0y3vwhoe1)" height="62.2339" id="TimelineComment" style="stroke:#A80036;stroke-width:1.5;" width="126" x="150" y="157.5"/><ellipse cx="165" cy="173.5" fill="#ADD1B2" rx="11" ry="11" style="stroke:#A80036;stroke-width:1.0;"/><path d="M165.5469,175.5 L167.4219,175.5 L167.4219,178.9063 Q166.875,179.2969 166.0313,179.5156 Q165.1875,179.7344 164.3125,179.7344 Q163.1875,179.7344 162.1719,179.4063 Q161.1563,179.0781 160.3906,178.3438 Q159.625,177.5938 159.1719,176.4219 Q158.7188,175.2344 158.7188,173.5469 Q158.7188,171.7969 159.2344,170.625 Q159.75,169.4375 160.5625,168.7188 Q161.3906,167.9844 162.3906,167.6719 Q163.3906,167.3594 164.3594,167.3594 Q165.375,167.3594 166.0781,167.5313 Q166.7813,167.7031 167.25,167.9219 L167.25,171.4531 L165.375,171.4531 L165.375,169.5156 Q164.8438,169.4375 164.2969,169.4375 Q163.625,169.4375 163.0469,169.6875 Q162.4844,169.9219 162.0625,170.4375 Q161.6406,170.9531 161.3906,171.7344 Q161.1563,172.5 161.1563,173.5469 Q161.1563,174.4688 161.375,175.2344 Q161.6094,175.9844 162.0313,176.5313 Q162.4531,177.0625 163.0625,177.3594 Q163.6719,177.6563 164.4531,177.6563 Q165.0156,177.6563 165.5469,177.5625 L165.5469,175.5 Z " fill="#000000"/><text fill="#000000" font-family="sans-serif" font-size="12" lengthAdjust="spacing" textLength="94" x="179" y="177.952">TimelineComment</text><line style="stroke:#A80036;stroke-width:1.5;" x1="151" x2="275" y1="189.5" y2="189.5"/><text fill="#000000" font-family="sans-serif" font-size="11" lengthAdjust="spacing" textLength="53" x="156" y="204.6979">text: String</text><line style="stroke:#A80036;stroke-width:1.5;" x1="151" x2="275" y1="211.7339" y2="211.7339"/><!--MD5=[432a29c9e97107b62cf312120324d123]
reverse link HistoricalTimeline to HistoricalEvent--><path codeLine="13" d="M172.8,78.27 C155.13,95.54 134.11,116.07 115.09,134.65 " fill="none" id="HistoricalTimeline-backto-HistoricalEvent" style="stroke:#A80036;stroke-width:1.0;"/><polygon fill="#A80036" points="182.24,69.05,175.1529,70.3817,173.6564,77.4358,180.7435,76.1041,182.24,69.05" style="stroke:#A80036;stroke-width:1.0;"/><text fill="#000000" font-family="sans-serif" font-size="13" lengthAdjust="spacing" textLength="7" x="168.1739" y="90.3987">1</text><text fill="#000000" font-family="sans-serif" font-size="13" lengthAdjust="spacing" textLength="5" x="123.048" y="123.2322">*</text><!--MD5=[507c5adb8118b7c0ab03724d0c99733c]
reverse link StudyGroup to HistoricalTimeline--><path codeLine="19" d="M283.95,473.99 C305.36,400.49 339.35,247.19 294,129 C285.11,105.84 267.21,84.91 250.49,69.07 " fill="none" id="StudyGroup-backto-HistoricalTimeline" style="stroke:#A80036;stroke-width:1.0;"/><polygon fill="#A80036" points="280.12,486.76,285.6773,482.1648,283.573,475.2675,278.0157,479.8628,280.12,486.76" style="stroke:#A80036;stroke-width:1.0;"/><text fill="#000000" font-family="sans-serif" font-size="13" lengthAdjust="spacing" textLength="7" x="274.5681" y="475.4746">1</text><text fill="#000000" font-family="sans-serif" font-size="13" lengthAdjust="spacing" textLength="5" x="252.7067" y="90.4228">*</text><!--MD5=[3e8b5d1ccd8d7758233ea4616f5c7f76]
link User to StudyGroup--><path codeLine="29" d="M239.2948,438.3641 C239.2948,438.3641 253.8522,475.6731 253.8522,475.6731 " fill="none" id="User-StudyGroup" style="stroke:#A80036;stroke-width:1.0;"/><polygon fill="#FFFFFF" points="258.22,486.85,259.7617,479.8056,253.8522,475.6731,252.3105,482.7175,258.22,486.85" style="stroke:#A80036;stroke-width:1.0;"/><polygon fill="#FFFFFF" points="234.92,427.19,233.3827,434.2353,239.2948,438.3641,240.8321,431.3188,234.92,427.19" style="stroke:#A80036;stroke-width:1.0;"/><text fill="#000000" font-family="sans-serif" font-size="13" lengthAdjust="spacing" textLength="5" x="232.2811" y="448.2884">*</text><text fill="#000000" font-family="sans-serif" font-size="13" lengthAdjust="spacing" textLength="5" x="250.0963" y="475.5843">*</text><!--MD5=[86d78f9b59e968d2ac395e2b5e8ee427]
reverse link HistoricalTimeline to TimelineComment--><path codeLine="35" d="M213,82.2 C213,106.36 213,135.87 213,157.49 " fill="none" id="HistoricalTimeline-backto-TimelineComment" style="stroke:#A80036;stroke-width:1.0;"/><polygon fill="#A80036" points="213,69.05,209,75.05,213,81.05,217,75.05,213,69.05" style="stroke:#A80036;stroke-width:1.0;"/><text fill="#000000" font-family="sans-serif" font-size="13" lengthAdjust="spacing" textLength="7" x="205.2781" y="90.3987">1</text><text fill="#000000" font-family="sans-serif" font-size="13" lengthAdjust="spacing" textLength="5" x="207.4219" y="145.7709">*</text><!--MD5=[b992a26d204acadbf695bee23ef24f0c]
reverse link TimelineComment to User--><path codeLine="36" d="M212.76,232.84 C212.63,255.47 212.47,283.47 212.33,307.99 " fill="none" id="TimelineComment-backto-User" style="stroke:#A80036;stroke-width:1.0;"/><polygon fill="#FFFFFF" points="212.83,219.53,208.7971,225.5079,212.7641,231.5298,216.797,225.5519,212.83,219.53" style="stroke:#A80036;stroke-width:1.0;"/><text fill="#000000" font-family="sans-serif" font-size="13" lengthAdjust="spacing" textLength="5" x="207.2793" y="240.8746">*</text><text fill="#000000" font-family="sans-serif" font-size="13" lengthAdjust="spacing" textLength="7" x="204.9238" y="296.6161">1</text><!--MD5=[50027a7013104ce3f2029829dad100f9]
@startuml
class HistoricalEvent {
  name: String
  description: String
  date: LocalDate
  location: String
  image: byte[]
}

class HistoricalTimeline {
  name: String
}

HistoricalTimeline "1" *- - "*" HistoricalEvent

class StudyGroup {
  name: String
}

StudyGroup "1" *- - "*" HistoricalTimeline

class User {
  isTeacher: Boolean
  firstName: String
  lastName: String
  username: String
  hashedPassword: String
}

User "*" o- -o "*" StudyGroup

class TimelineComment {
  text: String
}

HistoricalTimeline "1" *- - "*" TimelineComment
TimelineComment "*" o- - "1" User
@enduml

PlantUML version 1.2021.4(Sun Apr 04 10:49:39 CEST 2021)
(GPL source distribution)
Java Runtime: OpenJDK Runtime Environment
JVM: OpenJDK 64-Bit Server VM
Default Encoding: UTF-8
Language: en
Country: US
--></g></svg>