<?xml version="1.0" encoding="UTF-8" standalone="no"?><svg xmlns="http://www.w3.org/2000/svg" xmlns:xlink="http://www.w3.org/1999/xlink" contentScriptType="application/ecmascript" contentStyleType="text/css" height="549px" preserveAspectRatio="none" style="width:470px;height:549px;" version="1.1" viewBox="0 0 470 549" width="470px" zoomAndPan="magnify"><defs><filter height="300%" id="f8nzq2gp0e1ed" width="300%" x="-1" y="-1"><feGaussianBlur result="blurOut" stdDeviation="2.0"/><feColorMatrix in="blurOut" result="blurOut2" type="matrix" values="0 0 0 0 0 0 0 0 0 0 0 0 0 0 0 0 0 0 .4 0"/><feOffset dx="4.0" dy="4.0" in="blurOut2" result="blurOut3"/><feBlend in="SourceGraphic" in2="blurOut3" mode="normal"/></filter></defs><g><!--MD5=[8cd5e3b0a1e8c0f2af8dc3a8e1b8639f]
class HistoricalEvent--><rect codeLine="1" fill="#FEFECE" filter="url(#f8nzq2gp0e1ed)" height="119.1695" id="HistoricalEvent" style="stroke:#A80036;stroke-width:1.5;" width="108" x="7" y="129"/><ellipse cx="22" cy="145" fill="#ADD1B2" rx="11" ry="11" style="stroke:#A80036;stroke-width:1.0;"/><path d="M22.5469,147 L24.4219,147 L24.4219,150.4063 Q23.875,150.7969 23.0313,151.0156 Q22.1875,151.2344 21.3125,151.2344 Q20.1875,151.2344 19.1719,150.9063 Q18.1563,150.5781 17.3906,149.8438 Q16.625,149.0938 16.1719,147.9219 Q15.7188,146.7344 15.7188,145.0469 Q15.7188,143.2969 16.2344,142.125 Q16.75,140.9375 17.5625,140.2188 Q18.3906,139.4844 19.3906,139.1719 Q20.3906,138.8594 21.3594,138.8594 Q22.375,138.8594 23.0781,139.0313 Q23.7813,139.2031 24.25,139.4219 L24.25,142.9531 L22.375,142.9531 L22.375,141.0156 Q21.8438,140.9375 21.2969,140.9375 Q20.625,140.9375 20.0469,141.1875 Q19.4844,141.4219 19.0625,141.9375 Q18.6406,142.4531 18.3906,143.2344 Q18.1563,144 18.1563,145.0469 Q18.1563,145.9688 18.375,146.7344 Q18.6094,147.4844 19.0313,148.0313 Q19.4531,148.5625 20.0625,148.8594 Q20.6719,149.1563 21.4531,149.1563 Q22.0156,149.1563 22.5469,149.0625 L22.5469,147 Z " fill="#000000"/><text fill="#000000" font-family="sans-serif" font-size="12" lengthAdjust="spacing" textLength="76" x="36" y="149.452">HistoricalEvent</text><line style="stroke:#A80036;stroke-width:1.5;" x1="8" x2="114" y1="161" y2="161"/><text fill="#000000" font-family="sans-serif" font-size="11" lengthAdjust="spacing" textLength="61" x="13" y="176.1979">name: String</text><text fill="#000000" font-family="sans-serif" font-size="11" lengthAdjust="spacing" textLength="88" x="13" y="190.4318">description: String</text><text fill="#000000" font-family="sans-serif" font-size="11" lengthAdjust="spacing" textLength="76" x="13" y="204.6657">data: LocalDate</text><text fill="#000000" font-family="sans-serif" font-size="11" lengthAdjust="spacing" textLength="73" x="13" y="218.8996">location: String</text><text fill="#000000" font-family="sans-serif" font-size="11" lengthAdjust="spacing" textLength="65" x="13" y="233.1335">image: Image</text><line style="stroke:#A80036;stroke-width:1.5;" x1="8" x2="114" y1="240.1695" y2="240.1695"/><!--MD5=[9d310083877eb4099876c65f16768db1]
class HistoricalTimeline--><rect codeLine="9" fill="#FEFECE" filter="url(#f8nzq2gp0e1ed)" height="62.2339" id="HistoricalTimeline" style="stroke:#A80036;stroke-width:1.5;" width="125" x="128.5" y="7"/><ellipse cx="143.5" cy="23" fill="#ADD1B2" rx="11" ry="11" style="stroke:#A80036;stroke-width:1.0;"/><path d="M144.0469,25 L145.9219,25 L145.9219,28.4063 Q145.375,28.7969 144.5313,29.0156 Q143.6875,29.2344 142.8125,29.2344 Q141.6875,29.2344 140.6719,28.9063 Q139.6563,28.5781 138.8906,27.8438 Q138.125,27.0938 137.6719,25.9219 Q137.2188,24.7344 137.2188,23.0469 Q137.2188,21.2969 137.7344,20.125 Q138.25,18.9375 139.0625,18.2188 Q139.8906,17.4844 140.8906,17.1719 Q141.8906,16.8594 142.8594,16.8594 Q143.875,16.8594 144.5781,17.0313 Q145.2813,17.2031 145.75,17.4219 L145.75,20.9531 L143.875,20.9531 L143.875,19.0156 Q143.3438,18.9375 142.7969,18.9375 Q142.125,18.9375 141.5469,19.1875 Q140.9844,19.4219 140.5625,19.9375 Q140.1406,20.4531 139.8906,21.2344 Q139.6563,22 139.6563,23.0469 Q139.6563,23.9688 139.875,24.7344 Q140.1094,25.4844 140.5313,26.0313 Q140.9531,26.5625 141.5625,26.8594 Q142.1719,27.1563 142.9531,27.1563 Q143.5156,27.1563 144.0469,27.0625 L144.0469,25 Z " fill="#000000"/><text fill="#000000" font-family="sans-serif" font-size="12" lengthAdjust="spacing" textLength="93" x="157.5" y="27.452">HistoricalTimeline</text><line style="stroke:#A80036;stroke-width:1.5;" x1="129.5" x2="252.5" y1="39" y2="39"/><text fill="#000000" font-family="sans-serif" font-size="11" lengthAdjust="spacing" textLength="61" x="134.5" y="54.1979">name: String</text><line style="stroke:#A80036;stroke-width:1.5;" x1="129.5" x2="252.5" y1="61.2339" y2="61.2339"/><!--MD5=[63288f4f4902411236839d652cc0809f]
class StudyGroup--><rect codeLine="15" fill="#FEFECE" filter="url(#f8nzq2gp0e1ed)" height="62.2339" id="StudyGroup" style="stroke:#A80036;stroke-width:1.5;" width="90" x="247" y="473"/><ellipse cx="262" cy="489" fill="#ADD1B2" rx="11" ry="11" style="stroke:#A80036;stroke-width:1.0;"/><path d="M262.5469,491 L264.4219,491 L264.4219,494.4063 Q263.875,494.7969 263.0313,495.0156 Q262.1875,495.2344 261.3125,495.2344 Q260.1875,495.2344 259.1719,494.9063 Q258.1563,494.5781 257.3906,493.8438 Q256.625,493.0938 256.1719,491.9219 Q255.7188,490.7344 255.7188,489.0469 Q255.7188,487.2969 256.2344,486.125 Q256.75,484.9375 257.5625,484.2188 Q258.3906,483.4844 259.3906,483.1719 Q260.3906,482.8594 261.3594,482.8594 Q262.375,482.8594 263.0781,483.0313 Q263.7813,483.2031 264.25,483.4219 L264.25,486.9531 L262.375,486.9531 L262.375,485.0156 Q261.8438,484.9375 261.2969,484.9375 Q260.625,484.9375 260.0469,485.1875 Q259.4844,485.4219 259.0625,485.9375 Q258.6406,486.4531 258.3906,487.2344 Q258.1563,488 258.1563,489.0469 Q258.1563,489.9688 258.375,490.7344 Q258.6094,491.4844 259.0313,492.0313 Q259.4531,492.5625 260.0625,492.8594 Q260.6719,493.1563 261.4531,493.1563 Q262.0156,493.1563 262.5469,493.0625 L262.5469,491 Z " fill="#000000"/><text fill="#000000" font-family="sans-serif" font-size="12" lengthAdjust="spacing" textLength="58" x="276" y="493.452">StudyGroup</text><line style="stroke:#A80036;stroke-width:1.5;" x1="248" x2="336" y1="505" y2="505"/><text fill="#000000" font-family="sans-serif" font-size="11" lengthAdjust="spacing" textLength="61" x="253" y="520.1979">name: String</text><line style="stroke:#A80036;stroke-width:1.5;" x1="248" x2="336" y1="527.2339" y2="527.2339"/><!--MD5=[61a83f88cb8b7d3a80bc8c481f3736bf]
class Teacher--><rect codeLine="21" fill="#FEFECE" filter="url(#f8nzq2gp0e1ed)" height="104.9356" id="Teacher" style="stroke:#A80036;stroke-width:1.5;" width="111" x="345.5" y="308"/><ellipse cx="378.05" cy="324" fill="#ADD1B2" rx="11" ry="11" style="stroke:#A80036;stroke-width:1.0;"/><path d="M378.5969,326 L380.4719,326 L380.4719,329.4063 Q379.925,329.7969 379.0813,330.0156 Q378.2375,330.2344 377.3625,330.2344 Q376.2375,330.2344 375.2219,329.9063 Q374.2063,329.5781 373.4406,328.8438 Q372.675,328.0938 372.2219,326.9219 Q371.7688,325.7344 371.7688,324.0469 Q371.7688,322.2969 372.2844,321.125 Q372.8,319.9375 373.6125,319.2188 Q374.4406,318.4844 375.4406,318.1719 Q376.4406,317.8594 377.4094,317.8594 Q378.425,317.8594 379.1281,318.0313 Q379.8313,318.2031 380.3,318.4219 L380.3,321.9531 L378.425,321.9531 L378.425,320.0156 Q377.8938,319.9375 377.3469,319.9375 Q376.675,319.9375 376.0969,320.1875 Q375.5344,320.4219 375.1125,320.9375 Q374.6906,321.4531 374.4406,322.2344 Q374.2063,323 374.2063,324.0469 Q374.2063,324.9688 374.425,325.7344 Q374.6594,326.4844 375.0813,327.0313 Q375.5031,327.5625 376.1125,327.8594 Q376.7219,328.1563 377.5031,328.1563 Q378.0656,328.1563 378.5969,328.0625 L378.5969,326 Z " fill="#000000"/><text fill="#000000" font-family="sans-serif" font-size="12" lengthAdjust="spacing" textLength="40" x="395.95" y="328.452">Teacher</text><line style="stroke:#A80036;stroke-width:1.5;" x1="346.5" x2="455.5" y1="340" y2="340"/><text fill="#000000" font-family="sans-serif" font-size="11" lengthAdjust="spacing" textLength="82" x="351.5" y="355.1979">firstName: String</text><text fill="#000000" font-family="sans-serif" font-size="11" lengthAdjust="spacing" textLength="80" x="351.5" y="369.4318">lastName: String</text><text fill="#000000" font-family="sans-serif" font-size="11" lengthAdjust="spacing" textLength="82" x="351.5" y="383.6657">username: String</text><text fill="#000000" font-family="sans-serif" font-size="11" lengthAdjust="spacing" textLength="99" x="351.5" y="397.8996">hashedPassword: int</text><line style="stroke:#A80036;stroke-width:1.5;" x1="346.5" x2="455.5" y1="404.9356" y2="404.9356"/><!--MD5=[d6181cb537bdc20c0a3007a98a56832d]
class Student--><rect codeLine="31" fill="#FEFECE" filter="url(#f8nzq2gp0e1ed)" height="104.9356" id="Student" style="stroke:#A80036;stroke-width:1.5;" width="111" x="127.5" y="308"/><ellipse cx="160.5" cy="324" fill="#ADD1B2" rx="11" ry="11" style="stroke:#A80036;stroke-width:1.0;"/><path d="M161.0469,326 L162.9219,326 L162.9219,329.4063 Q162.375,329.7969 161.5313,330.0156 Q160.6875,330.2344 159.8125,330.2344 Q158.6875,330.2344 157.6719,329.9063 Q156.6563,329.5781 155.8906,328.8438 Q155.125,328.0938 154.6719,326.9219 Q154.2188,325.7344 154.2188,324.0469 Q154.2188,322.2969 154.7344,321.125 Q155.25,319.9375 156.0625,319.2188 Q156.8906,318.4844 157.8906,318.1719 Q158.8906,317.8594 159.8594,317.8594 Q160.875,317.8594 161.5781,318.0313 Q162.2813,318.2031 162.75,318.4219 L162.75,321.9531 L160.875,321.9531 L160.875,320.0156 Q160.3438,319.9375 159.7969,319.9375 Q159.125,319.9375 158.5469,320.1875 Q157.9844,320.4219 157.5625,320.9375 Q157.1406,321.4531 156.8906,322.2344 Q156.6563,323 156.6563,324.0469 Q156.6563,324.9688 156.875,325.7344 Q157.1094,326.4844 157.5313,327.0313 Q157.9531,327.5625 158.5625,327.8594 Q159.1719,328.1563 159.9531,328.1563 Q160.5156,328.1563 161.0469,328.0625 L161.0469,326 Z " fill="#000000"/><text fill="#000000" font-family="sans-serif" font-size="12" lengthAdjust="spacing" textLength="39" x="178.5" y="328.452">Student</text><line style="stroke:#A80036;stroke-width:1.5;" x1="128.5" x2="237.5" y1="340" y2="340"/><text fill="#000000" font-family="sans-serif" font-size="11" lengthAdjust="spacing" textLength="82" x="133.5" y="355.1979">firstName: String</text><text fill="#000000" font-family="sans-serif" font-size="11" lengthAdjust="spacing" textLength="80" x="133.5" y="369.4318">lastName: String</text><text fill="#000000" font-family="sans-serif" font-size="11" lengthAdjust="spacing" textLength="82" x="133.5" y="383.6657">username: String</text><text fill="#000000" font-family="sans-serif" font-size="11" lengthAdjust="spacing" textLength="99" x="133.5" y="397.8996">hashedPassword: int</text><line style="stroke:#A80036;stroke-width:1.5;" x1="128.5" x2="237.5" y1="404.9356" y2="404.9356"/><!--MD5=[042fa140da40c49659127f611bcff931]
class Comment--><rect codeLine="40" fill="#FEFECE" filter="url(#f8nzq2gp0e1ed)" height="62.2339" id="Comment" style="stroke:#A80036;stroke-width:1.5;" width="81" x="150.5" y="157.5"/><ellipse cx="165.5" cy="173.5" fill="#ADD1B2" rx="11" ry="11" style="stroke:#A80036;stroke-width:1.0;"/><path d="M166.0469,175.5 L167.9219,175.5 L167.9219,178.9063 Q167.375,179.2969 166.5313,179.5156 Q165.6875,179.7344 164.8125,179.7344 Q163.6875,179.7344 162.6719,179.4063 Q161.6563,179.0781 160.8906,178.3438 Q160.125,177.5938 159.6719,176.4219 Q159.2188,175.2344 159.2188,173.5469 Q159.2188,171.7969 159.7344,170.625 Q160.25,169.4375 161.0625,168.7188 Q161.8906,167.9844 162.8906,167.6719 Q163.8906,167.3594 164.8594,167.3594 Q165.875,167.3594 166.5781,167.5313 Q167.2813,167.7031 167.75,167.9219 L167.75,171.4531 L165.875,171.4531 L165.875,169.5156 Q165.3438,169.4375 164.7969,169.4375 Q164.125,169.4375 163.5469,169.6875 Q162.9844,169.9219 162.5625,170.4375 Q162.1406,170.9531 161.8906,171.7344 Q161.6563,172.5 161.6563,173.5469 Q161.6563,174.4688 161.875,175.2344 Q162.1094,175.9844 162.5313,176.5313 Q162.9531,177.0625 163.5625,177.3594 Q164.1719,177.6563 164.9531,177.6563 Q165.5156,177.6563 166.0469,177.5625 L166.0469,175.5 Z " fill="#000000"/><text fill="#000000" font-family="sans-serif" font-size="12" lengthAdjust="spacing" textLength="49" x="179.5" y="177.952">Comment</text><line style="stroke:#A80036;stroke-width:1.5;" x1="151.5" x2="230.5" y1="189.5" y2="189.5"/><text fill="#000000" font-family="sans-serif" font-size="11" lengthAdjust="spacing" textLength="53" x="156.5" y="204.6979">text: String</text><line style="stroke:#A80036;stroke-width:1.5;" x1="151.5" x2="230.5" y1="211.7339" y2="211.7339"/><!--MD5=[432a29c9e97107b62cf312120324d123]
reverse link HistoricalTimeline to HistoricalEvent--><path codeLine="13" d="M155.8,79.21 C142.4,94.51 126.85,112.28 112.26,128.95 " fill="none" id="HistoricalTimeline-backto-HistoricalEvent" style="stroke:#A80036;stroke-width:1.0;"/><polygon fill="#A80036" points="164.69,69.05,157.7279,70.9286,156.7842,78.0776,163.7463,76.1991,164.69,69.05" style="stroke:#A80036;stroke-width:1.0;"/><text fill="#000000" font-family="sans-serif" font-size="13" lengthAdjust="spacing" textLength="7" x="151.5417" y="90.3987">1</text><text fill="#000000" font-family="sans-serif" font-size="13" lengthAdjust="spacing" textLength="5" x="113.5074" y="117.571">*</text><!--MD5=[507c5adb8118b7c0ab03724d0c99733c]
reverse link StudyGroup to HistoricalTimeline--><path codeLine="19" d="M293.3,459.65 C294.07,388.44 289.86,243.24 249,129 C241.3,107.47 227.61,85.85 215.46,69.2 " fill="none" id="StudyGroup-backto-HistoricalTimeline" style="stroke:#A80036;stroke-width:1.0;"/><polygon fill="#A80036" points="293.09,472.87,297.1818,466.9322,293.2746,460.8714,289.1828,466.8092,293.09,472.87" style="stroke:#A80036;stroke-width:1.0;"/><text fill="#000000" font-family="sans-serif" font-size="13" lengthAdjust="spacing" textLength="7" x="285.5628" y="461.6086">1</text><text fill="#000000" font-family="sans-serif" font-size="13" lengthAdjust="spacing" textLength="5" x="214.9893" y="90.5797">*</text><!--MD5=[fa493631e5f448847da3524dd9664e8c]
reverse link Teacher to StudyGroup--><path codeLine="28" d="M352.95,423.87 C339.83,440.91 326.2,458.6 315.16,472.93 " fill="none" id="Teacher-backto-StudyGroup" style="stroke:#A80036;stroke-width:1.0;"/><polygon fill="#A80036" points="361.03,413.39,354.2005,415.7046,353.7103,422.899,360.5398,420.5844,361.03,413.39" style="stroke:#A80036;stroke-width:1.0;"/><text fill="#000000" font-family="sans-serif" font-size="13" lengthAdjust="spacing" textLength="7" x="348.7321" y="434.099">1</text><text fill="#000000" font-family="sans-serif" font-size="13" lengthAdjust="spacing" textLength="5" x="314.9376" y="461.1971">*</text><!--MD5=[62d60d2657533e49a0a1cbd9f193ca73]
link Student to StudyGroup--><path codeLine="38" d="M230.2897,422.899 C230.2897,422.899 261.512,463.4273 261.512,463.4273 " fill="none" id="Student-StudyGroup" style="stroke:#A80036;stroke-width:1.0;"/><polygon fill="#FFFFFF" points="268.84,472.93,268.3436,465.736,261.512,463.4273,262.0085,470.6213,268.84,472.93" style="stroke:#A80036;stroke-width:1.0;"/><polygon fill="#FFFFFF" points="222.97,413.39,223.4602,420.5844,230.2897,422.899,229.7995,415.7046,222.97,413.39" style="stroke:#A80036;stroke-width:1.0;"/><text fill="#000000" font-family="sans-serif" font-size="13" lengthAdjust="spacing" textLength="5" x="222.5367" y="434.099">*</text><text fill="#000000" font-family="sans-serif" font-size="13" lengthAdjust="spacing" textLength="5" x="257.9061" y="461.1971">*</text><!--MD5=[7b78e8ab1aa611df95df66071ff5251c]
reverse link HistoricalTimeline to Comment--><path codeLine="44" d="M191,82.2 C191,106.36 191,135.87 191,157.49 " fill="none" id="HistoricalTimeline-backto-Comment" style="stroke:#A80036;stroke-width:1.0;"/><polygon fill="#A80036" points="191,69.05,187,75.05,191,81.05,195,75.05,191,69.05" style="stroke:#A80036;stroke-width:1.0;"/><text fill="#000000" font-family="sans-serif" font-size="13" lengthAdjust="spacing" textLength="7" x="183.2781" y="90.3987">1</text><text fill="#000000" font-family="sans-serif" font-size="13" lengthAdjust="spacing" textLength="5" x="185.4219" y="145.7709">*</text><!--MD5=[f6bcb9a67744c6589744e1c37882f54b]
reverse link Comment to Student--><path codeLine="45" d="M188.97,232.62 C187.89,255.49 186.56,283.76 185.43,307.8 " fill="none" id="Comment-backto-Student" style="stroke:#A80036;stroke-width:1.0;"/><polygon fill="#FFFFFF" points="189.59,219.5,185.311,225.3043,189.023,231.4866,193.302,225.6823,189.59,219.5" style="stroke:#A80036;stroke-width:1.0;"/><text fill="#000000" font-family="sans-serif" font-size="13" lengthAdjust="spacing" textLength="5" x="183.7836" y="240.8384">*</text><text fill="#000000" font-family="sans-serif" font-size="13" lengthAdjust="spacing" textLength="7" x="178.2795" y="296.5604">1</text><!--MD5=[01b9816ab3fc46ba75e73ac1eaf185ba]
@startuml
class HistoricalEvent {
  name: String
  description: String
  data: LocalDate
  location: String
  image: Image
}

class HistoricalTimeline {
  name: String
}

HistoricalTimeline "1" *- - "*" HistoricalEvent

class StudyGroup {
  name: String
}

StudyGroup "1" *- - "*" HistoricalTimeline

class Teacher {
  firstName: String
  lastName: String
  username: String
  hashedPassword: int
}

Teacher "1" *- - "*" StudyGroup


class Student {
  firstName: String
  lastName: String
  username: String
  hashedPassword: int
}

Student "*" o- -o "*" StudyGroup

class Comment {
  text: String
}

HistoricalTimeline "1" *- - "*" Comment
Comment "*" o- - "1" Student
@enduml

PlantUML version 1.2021.00(Sun Jan 10 11:25:05 CET 2021)
(GPL source distribution)
Java Runtime: OpenJDK Runtime Environment
JVM: OpenJDK 64-Bit Server VM
Default Encoding: UTF-8
Language: en
Country: US
--></g></svg>