<?xml version="1.0" encoding="UTF-8" standalone="no"?><svg xmlns="http://www.w3.org/2000/svg" xmlns:xlink="http://www.w3.org/1999/xlink" contentScriptType="application/ecmascript" contentStyleType="text/css" height="933px" preserveAspectRatio="none" style="width:345px;height:933px;" version="1.1" viewBox="0 0 345 933" width="345px" zoomAndPan="magnify"><defs><filter height="300%" id="f1n0zj06k81q0t" width="300%" x="-1" y="-1"><feGaussianBlur result="blurOut" stdDeviation="2.0"/><feColorMatrix in="blurOut" result="blurOut2" type="matrix" values="0 0 0 0 0 0 0 0 0 0 0 0 0 0 0 0 0 0 .4 0"/><feOffset dx="4.0" dy="4.0" in="blurOut2" result="blurOut3"/><feBlend in="SourceGraphic" in2="blurOut3" mode="normal"/></filter></defs><g><!--MD5=[494c489cc4328319247ec2e1625e02a3]
entity Student--><ellipse cx="30" cy="214.5" fill="#FEFECE" filter="url(#f1n0zj06k81q0t)" rx="8" ry="8" style="stroke:#A80036;stroke-width:1.5;"/><path d="M30,222.5 L30,249.5 M17,230.5 L43,230.5 M30,249.5 L17,264.5 M30,249.5 L43,264.5 " fill="none" filter="url(#f1n0zj06k81q0t)" style="stroke:#A80036;stroke-width:1.5;"/><text fill="#000000" font-family="sans-serif" font-size="14" lengthAdjust="spacing" textLength="47" x="6.5" y="284.2519">Student</text><!--MD5=[e64da02f5594507ded6bc1fdafafe102]
entity Teacher--><ellipse cx="30" cy="492.5" fill="#FEFECE" filter="url(#f1n0zj06k81q0t)" rx="8" ry="8" style="stroke:#A80036;stroke-width:1.5;"/><path d="M30,500.5 L30,527.5 M17,508.5 L43,508.5 M30,527.5 L17,542.5 M30,527.5 L43,542.5 " fill="none" filter="url(#f1n0zj06k81q0t)" style="stroke:#A80036;stroke-width:1.5;"/><text fill="#000000" font-family="sans-serif" font-size="14" lengthAdjust="spacing" textLength="48" x="6" y="562.2519">Teacher</text><ellipse cx="223.6404" cy="106.3281" fill="#FEFECE" filter="url(#f1n0zj06k81q0t)" rx="97.1404" ry="21.8281" style="stroke:#A80036;stroke-width:1.5;"/><text fill="#000000" font-family="sans-serif" font-size="14" lengthAdjust="spacing" textLength="152" x="144.6404" y="110.704">add comment to timeline</text><ellipse cx="223.4685" cy="27.4937" fill="#FEFECE" filter="url(#f1n0zj06k81q0t)" rx="95.4685" ry="21.4937" style="stroke:#A80036;stroke-width:1.5;"/><text fill="#000000" font-family="sans-serif" font-size="14" lengthAdjust="spacing" textLength="148" x="146.4685" y="31.8697">search among all events</text><ellipse cx="223.3055" cy="179.3893" fill="#FEFECE" filter="url(#f1n0zj06k81q0t)" rx="34.3055" ry="15.8893" style="stroke:#A80036;stroke-width:1.5;"/><text fill="#000000" font-family="sans-serif" font-size="14" lengthAdjust="spacing" textLength="32" x="204.8527" y="183.5931">login</text><ellipse cx="223.5754" cy="246.5145" fill="#FEFECE" filter="url(#f1n0zj06k81q0t)" rx="41.0754" ry="16.0145" style="stroke:#A80036;stroke-width:1.5;"/><text fill="#000000" font-family="sans-serif" font-size="14" lengthAdjust="spacing" textLength="41" x="200.0754" y="250.8905">logout</text><ellipse cx="223.5962" cy="313.5792" fill="#FEFECE" filter="url(#f1n0zj06k81q0t)" rx="45.5962" ry="16.0792" style="stroke:#A80036;stroke-width:1.5;"/><text fill="#000000" font-family="sans-serif" font-size="14" lengthAdjust="spacing" textLength="47" x="197.0962" y="317.9551">register</text><ellipse cx="223.5086" cy="381.5017" fill="#FEFECE" filter="url(#f1n0zj06k81q0t)" rx="70.5086" ry="16.5017" style="stroke:#A80036;stroke-width:1.5;"/><text fill="#000000" font-family="sans-serif" font-size="14" lengthAdjust="spacing" textLength="82" x="179.5086" y="385.8777">view timeline</text><ellipse cx="223.3776" cy="451.6755" fill="#FEFECE" filter="url(#f1n0zj06k81q0t)" rx="78.8776" ry="18.1755" style="stroke:#A80036;stroke-width:1.5;"/><text fill="#000000" font-family="sans-serif" font-size="14" lengthAdjust="spacing" textLength="106" x="167.3776" y="456.0515">view study group</text><ellipse cx="223.7069" cy="762.2656" fill="#FEFECE" filter="url(#f1n0zj06k81q0t)" rx="66.7069" ry="16.2656" style="stroke:#A80036;stroke-width:1.5;"/><text fill="#000000" font-family="sans-serif" font-size="14" lengthAdjust="spacing" textLength="75" x="183.2069" y="766.6416">create event</text><ellipse cx="223.5242" cy="831.6048" fill="#FEFECE" filter="url(#f1n0zj06k81q0t)" rx="73.5242" ry="17.1048" style="stroke:#A80036;stroke-width:1.5;"/><text fill="#000000" font-family="sans-serif" font-size="14" lengthAdjust="spacing" textLength="91" x="175.0242" y="835.9808">create timeline</text><ellipse cx="223.257" cy="902.3514" fill="#FEFECE" filter="url(#f1n0zj06k81q0t)" rx="82.257" ry="18.8514" style="stroke:#A80036;stroke-width:1.5;"/><text fill="#000000" font-family="sans-serif" font-size="14" lengthAdjust="spacing" textLength="115" x="162.757" y="906.7274">create study group</text><ellipse cx="223.62" cy="524.524" fill="#FEFECE" filter="url(#f1n0zj06k81q0t)" rx="88.12" ry="20.024" style="stroke:#A80036;stroke-width:1.5;"/><text fill="#000000" font-family="sans-serif" font-size="14" lengthAdjust="spacing" textLength="130" x="155.62" y="528.9">add event to timeline</text><ellipse cx="223.3139" cy="603.3628" fill="#FEFECE" filter="url(#f1n0zj06k81q0t)" rx="104.8139" ry="23.3628" style="stroke:#A80036;stroke-width:1.5;"/><text fill="#000000" font-family="sans-serif" font-size="14" lengthAdjust="spacing" textLength="170" x="135.7197" y="607.5993">add timeline to study group</text><ellipse cx="223.6515" cy="686.3303" fill="#FEFECE" filter="url(#f1n0zj06k81q0t)" rx="109.6515" ry="24.3303" style="stroke:#A80036;stroke-width:1.5;"/><text fill="#000000" font-family="sans-serif" font-size="14" lengthAdjust="spacing" textLength="181" x="131.7349" y="690.1279">enroll student to study group</text><!--MD5=[5ec3bf96afb378331f3fe484ebd751ed]
link Student to add comment to timeline--><path d="M53.66,210.03 C68.53,188.68 89.7,162.63 114,145.5 C126.05,137 140.15,130.17 154.13,124.74 " fill="none" id="Student-to-add comment to timeline" style="stroke:#A80036;stroke-width:1.0;"/><polygon fill="#A80036" points="158.86,122.95,149.027,122.391,154.1831,124.7181,151.856,129.8742,158.86,122.95" style="stroke:#A80036;stroke-width:1.0;"/><!--MD5=[2cca75a2562d9fb93147cc00328a7631]
link Student to search among all events--><path d="M40.24,204.86 C51.28,164.33 73.54,103.59 114,66.5 C124.25,57.1 136.93,49.94 149.96,44.48 " fill="none" id="Student-to-search among all events" style="stroke:#A80036;stroke-width:1.0;"/><polygon fill="#A80036" points="154.77,42.54,144.9272,42.1947,150.1326,44.4092,147.918,49.6146,154.77,42.54" style="stroke:#A80036;stroke-width:1.0;"/><!--MD5=[e6526ae01fe5bcbee305ca99664787de]
link Student to login--><path d="M53.68,236.54 C70.24,229.43 93.32,219.86 114,212.5 C138.56,203.76 166.73,195.23 188.21,189.04 " fill="none" id="Student-to-login" style="stroke:#A80036;stroke-width:1.0;"/><polygon fill="#A80036" points="193.25,187.59,183.4974,186.2164,188.4424,188.9636,185.6952,193.9086,193.25,187.59" style="stroke:#A80036;stroke-width:1.0;"/><!--MD5=[940b8e1d4bb289da9f10b1ca46f47554]
link Student to logout--><path d="M53.72,246.5 C84.06,246.5 138.49,246.5 177.34,246.5 " fill="none" id="Student-to-logout" style="stroke:#A80036;stroke-width:1.0;"/><polygon fill="#A80036" points="182.47,246.5,173.47,242.5,177.47,246.5,173.47,250.5,182.47,246.5" style="stroke:#A80036;stroke-width:1.0;"/><!--MD5=[46647cabc6ce7762f4eb0281696ceef7]
link Student to register--><path d="M53.73,256.07 C70.31,262.92 93.39,272.19 114,279.5 C136.73,287.57 162.49,295.68 183.2,301.96 " fill="none" id="Student-to-register" style="stroke:#A80036;stroke-width:1.0;"/><polygon fill="#A80036" points="188.08,303.43,180.6353,296.982,183.2968,301.9736,178.3051,304.6351,188.08,303.43" style="stroke:#A80036;stroke-width:1.0;"/><!--MD5=[f80d5d701cdcdbdd5e6ace35268911ab]
link Student to view timeline--><path d="M53.53,282.89 C68.36,304.14 89.52,329.93 114,346.5 C129.13,356.74 147.46,364.15 164.71,369.43 " fill="none" id="Student-to-view timeline" style="stroke:#A80036;stroke-width:1.0;"/><polygon fill="#A80036" points="169.55,370.87,162.0702,364.4628,164.7589,369.4398,159.7819,372.1286,169.55,370.87" style="stroke:#A80036;stroke-width:1.0;"/><!--MD5=[da0c4f07b35c891bd58bc00934cb90b8]
link Student to view study group--><path d="M41.4,288 C53.01,326.2 75.45,381.87 114,415.5 C125.96,425.93 141.03,433.36 156.11,438.64 " fill="none" id="Student-to-view study group" style="stroke:#A80036;stroke-width:1.0;"/><polygon fill="#A80036" points="161.22,440.35,153.9528,433.7026,156.478,438.7646,151.4161,441.2898,161.22,440.35" style="stroke:#A80036;stroke-width:1.0;"/><!--MD5=[80c03aaa7cb1019689d7a6320eae9539]
link Teacher to login--><path d="M37.01,482.71 C48.7,406.95 76.68,251.16 114,212.5 C132.18,193.67 160.74,185.5 183.99,181.99 " fill="none" id="Teacher-to-login" style="stroke:#A80036;stroke-width:1.0;"/><polygon fill="#A80036" points="189.17,181.27,179.7057,178.5447,184.2174,181.9571,180.805,186.4688,189.17,181.27" style="stroke:#A80036;stroke-width:1.0;"/><!--MD5=[7b5f7f6b1384565aec9184bb944649ca]
link Teacher to logout--><path d="M33.72,482.87 C39.5,428.6 57.56,334.19 114,279.5 C131.08,262.95 156.21,254.67 177.98,250.54 " fill="none" id="Teacher-to-logout" style="stroke:#A80036;stroke-width:1.0;"/><polygon fill="#A80036" points="183.14,249.62,173.581,247.2481,178.2164,250.4906,174.9739,255.1259,183.14,249.62" style="stroke:#A80036;stroke-width:1.0;"/><!--MD5=[a59c9326d425ad52e51364fa6147c029]
link Teacher to register--><path d="M40.21,482.81 C51.18,442.68 73.36,383 114,347.5 C131,332.65 154.45,324.28 175.21,319.57 " fill="none" id="Teacher-to-register" style="stroke:#A80036;stroke-width:1.0;"/><polygon fill="#A80036" points="180.15,318.51,170.5076,316.5038,175.2631,319.5674,172.1995,324.3229,180.15,318.51" style="stroke:#A80036;stroke-width:1.0;"/><!--MD5=[92dd76b7c64156d486f6a8d9722d0b04]
link Teacher to view timeline--><path d="M53.98,482.85 C68.49,460.02 89.17,432.92 114,415.5 C128.35,405.43 145.8,398.26 162.48,393.18 " fill="none" id="Teacher-to-view timeline" style="stroke:#A80036;stroke-width:1.0;"/><polygon fill="#A80036" points="167.62,391.67,157.8564,390.3768,162.8239,393.0831,160.1175,398.0506,167.62,391.67" style="stroke:#A80036;stroke-width:1.0;"/><!--MD5=[46010908debc7f940ec55031cd988c88]
link Teacher to view study group--><path d="M54.3,512.94 C70.76,505 93.47,494.48 114,486.5 C131.87,479.55 151.76,472.85 169.58,467.2 " fill="none" id="Teacher-to-view study group" style="stroke:#A80036;stroke-width:1.0;"/><polygon fill="#A80036" points="174.54,465.64,164.7547,464.5232,169.7701,467.1395,167.1539,472.155,174.54,465.64" style="stroke:#A80036;stroke-width:1.0;"/><!--MD5=[3ca89d4725fa4b16dcca7d904579686f]
link Teacher to create event--><path d="M37.17,566.06 C46.14,612.06 67.16,685.38 114,728.5 C126.77,740.25 143.56,747.94 160.11,752.97 " fill="none" id="Teacher-to-create event" style="stroke:#A80036;stroke-width:1.0;"/><polygon fill="#A80036" points="165.23,754.45,157.6926,748.1107,160.4262,753.0632,155.4737,755.7968,165.23,754.45" style="stroke:#A80036;stroke-width:1.0;"/><!--MD5=[f9fa270c2c6a93ab0d7d06df07727b10]
link Teacher to create timeline--><path d="M32.18,566.43 C36.13,625.63 52.01,733.52 114,796.5 C125.39,808.07 140.61,815.82 156.05,821.01 " fill="none" id="Teacher-to-create timeline" style="stroke:#A80036;stroke-width:1.0;"/><polygon fill="#A80036" points="160.85,822.54,153.4873,815.9986,156.0856,821.0234,151.0607,823.6217,160.85,822.54" style="stroke:#A80036;stroke-width:1.0;"/><!--MD5=[0bd84ecf88cc2b492a9c9adf915505c8]
link Teacher to create study group--><path d="M36.02,566.04 C46.61,647.18 73.65,822.68 114,866.5 C123.76,877.1 136.71,884.58 150.25,889.86 " fill="none" id="Teacher-to-create study group" style="stroke:#A80036;stroke-width:1.0;"/><polygon fill="#A80036" points="155.26,891.71,148.2006,884.8423,150.569,889.9795,145.4318,892.3479,155.26,891.71" style="stroke:#A80036;stroke-width:1.0;"/><!--MD5=[f4b5761cd7dc40b7bf94708da993b9c5]
link Teacher to add event to timeline--><path d="M54.1,524.5 C73.3,524.5 101.95,524.5 130.2,524.5 " fill="none" id="Teacher-to-add event to timeline" style="stroke:#A80036;stroke-width:1.0;"/><polygon fill="#A80036" points="135.47,524.5,126.47,520.5,130.47,524.5,126.47,528.5,135.47,524.5" style="stroke:#A80036;stroke-width:1.0;"/><!--MD5=[023f32dbfef59402543e22be5a702e32]
link Teacher to add timeline to study group--><path d="M54.12,535.18 C70.7,542.74 93.61,553.01 114,561.5 C130.06,568.18 147.58,575.12 163.78,581.38 " fill="none" id="Teacher-to-add timeline to study group" style="stroke:#A80036;stroke-width:1.0;"/><polygon fill="#A80036" points="168.76,583.31,161.8001,576.3415,164.0944,581.5122,158.9237,583.8065,168.76,583.31" style="stroke:#A80036;stroke-width:1.0;"/><!--MD5=[499b3970333d8c3c164b68e7dfee32a1]
link Teacher to enroll student to study group--><path d="M51.58,566.26 C66.01,591.83 87.44,623.57 114,644.5 C124.67,652.91 137.22,659.8 149.92,665.38 " fill="none" id="Teacher-to-enroll student to study group" style="stroke:#A80036;stroke-width:1.0;"/><polygon fill="#A80036" points="154.61,667.38,147.9134,660.1581,150.0143,665.4104,144.762,667.5113,154.61,667.38" style="stroke:#A80036;stroke-width:1.0;"/><!--MD5=[8fec1838a089bc25f5a9507d74a24152]
@startuml
left to right direction

actor Student
actor Teacher

Student - -> (add comment to timeline)
Student - -> (search among all events)

Student - -> (login)
Student - -> (logout)
Student - -> (register)
Student - -> (view timeline)
Student - -> (view study group)

Teacher - -> (login)
Teacher - -> (logout)
Teacher - -> (register)
Teacher - -> (view timeline)
Teacher - -> (view study group)

Teacher - -> (create event)
Teacher - -> (create timeline)
Teacher - -> (create study group)

Teacher - -> (add event to timeline)
Teacher - -> (add timeline to study group)
Teacher - -> (enroll student to study group)
@enduml

PlantUML version 1.2021.00(Sun Jan 10 11:25:05 CET 2021)
(GPL source distribution)
Java Runtime: OpenJDK Runtime Environment
JVM: OpenJDK 64-Bit Server VM
Default Encoding: UTF-8
Language: en
Country: US
--></g></svg>