<?xml version="1.0" encoding="UTF-8" standalone="no"?><svg xmlns="http://www.w3.org/2000/svg" xmlns:xlink="http://www.w3.org/1999/xlink" contentScriptType="application/ecmascript" contentStyleType="text/css" height="715px" preserveAspectRatio="none" style="width:543px;height:715px;" version="1.1" viewBox="0 0 543 715" width="543px" zoomAndPan="magnify"><defs><filter height="300%" id="foxcv4zvnoxbb" width="300%" x="-1" y="-1"><feGaussianBlur result="blurOut" stdDeviation="2.0"/><feColorMatrix in="blurOut" result="blurOut2" type="matrix" values="0 0 0 0 0 0 0 0 0 0 0 0 0 0 0 0 0 0 .4 0"/><feOffset dx="4.0" dy="4.0" in="blurOut2" result="blurOut3"/><feBlend in="SourceGraphic" in2="blurOut3" mode="normal"/></filter></defs><g><!--MD5=[fee662a292a0353a69bd162820bae93b]
entity User--><ellipse cx="19.5" cy="448" fill="#FEFECE" filter="url(#foxcv4zvnoxbb)" rx="8" ry="8" style="stroke:#A80036;stroke-width:1.5;"/><path d="M19.5,456 L19.5,483 M6.5,464 L32.5,464 M19.5,483 L6.5,498 M19.5,483 L32.5,498 " fill="none" filter="url(#foxcv4zvnoxbb)" style="stroke:#A80036;stroke-width:1.5;"/><text fill="#000000" font-family="sans-serif" font-size="14" lengthAdjust="spacing" textLength="27" x="6" y="517.7519">User</text><!--MD5=[494c489cc4328319247ec2e1625e02a3]
entity Student--><ellipse cx="173" cy="75" fill="#FEFECE" filter="url(#foxcv4zvnoxbb)" rx="8" ry="8" style="stroke:#A80036;stroke-width:1.5;"/><path d="M173,83 L173,110 M160,91 L186,91 M173,110 L160,125 M173,110 L186,125 " fill="none" filter="url(#foxcv4zvnoxbb)" style="stroke:#A80036;stroke-width:1.5;"/><text fill="#000000" font-family="sans-serif" font-size="14" lengthAdjust="spacing" textLength="47" x="149.5" y="144.7519">Student</text><!--MD5=[e64da02f5594507ded6bc1fdafafe102]
entity Teacher--><ellipse cx="173" cy="288" fill="#FEFECE" filter="url(#foxcv4zvnoxbb)" rx="8" ry="8" style="stroke:#A80036;stroke-width:1.5;"/><path d="M173,296 L173,323 M160,304 L186,304 M173,323 L160,338 M173,323 L186,338 " fill="none" filter="url(#foxcv4zvnoxbb)" style="stroke:#A80036;stroke-width:1.5;"/><text fill="#000000" font-family="sans-serif" font-size="14" lengthAdjust="spacing" textLength="48" x="149" y="357.7519">Teacher</text><ellipse cx="172.8055" cy="412.8893" fill="#FEFECE" filter="url(#foxcv4zvnoxbb)" rx="34.3055" ry="15.8893" style="stroke:#A80036;stroke-width:1.5;"/><text fill="#000000" font-family="sans-serif" font-size="14" lengthAdjust="spacing" textLength="32" x="154.3527" y="417.0931">login</text><ellipse cx="173.0754" cy="480.0145" fill="#FEFECE" filter="url(#foxcv4zvnoxbb)" rx="41.0754" ry="16.0145" style="stroke:#A80036;stroke-width:1.5;"/><text fill="#000000" font-family="sans-serif" font-size="14" lengthAdjust="spacing" textLength="41" x="149.5754" y="484.3905">logout</text><ellipse cx="173.0962" cy="547.0792" fill="#FEFECE" filter="url(#foxcv4zvnoxbb)" rx="45.5962" ry="16.0792" style="stroke:#A80036;stroke-width:1.5;"/><text fill="#000000" font-family="sans-serif" font-size="14" lengthAdjust="spacing" textLength="47" x="146.5962" y="551.4551">register</text><ellipse cx="173.0086" cy="615.0017" fill="#FEFECE" filter="url(#foxcv4zvnoxbb)" rx="70.5086" ry="16.5017" style="stroke:#A80036;stroke-width:1.5;"/><text fill="#000000" font-family="sans-serif" font-size="14" lengthAdjust="spacing" textLength="82" x="129.0086" y="619.3777">view timeline</text><ellipse cx="172.8776" cy="685.1755" fill="#FEFECE" filter="url(#foxcv4zvnoxbb)" rx="78.8776" ry="18.1755" style="stroke:#A80036;stroke-width:1.5;"/><text fill="#000000" font-family="sans-serif" font-size="14" lengthAdjust="spacing" textLength="106" x="116.8776" y="689.5515">view study group</text><ellipse cx="421.6404" cy="27.8281" fill="#FEFECE" filter="url(#foxcv4zvnoxbb)" rx="97.1404" ry="21.8281" style="stroke:#A80036;stroke-width:1.5;"/><text fill="#000000" font-family="sans-serif" font-size="14" lengthAdjust="spacing" textLength="152" x="342.6404" y="32.204">add comment to timeline</text><ellipse cx="421.4685" cy="106.9937" fill="#FEFECE" filter="url(#foxcv4zvnoxbb)" rx="95.4685" ry="21.4937" style="stroke:#A80036;stroke-width:1.5;"/><text fill="#000000" font-family="sans-serif" font-size="14" lengthAdjust="spacing" textLength="148" x="344.4685" y="111.3697">search among all events</text><ellipse cx="421.7069" cy="179.7656" fill="#FEFECE" filter="url(#foxcv4zvnoxbb)" rx="66.7069" ry="16.2656" style="stroke:#A80036;stroke-width:1.5;"/><text fill="#000000" font-family="sans-serif" font-size="14" lengthAdjust="spacing" textLength="75" x="381.2069" y="184.1416">create event</text><ellipse cx="421.5242" cy="249.1048" fill="#FEFECE" filter="url(#foxcv4zvnoxbb)" rx="73.5242" ry="17.1048" style="stroke:#A80036;stroke-width:1.5;"/><text fill="#000000" font-family="sans-serif" font-size="14" lengthAdjust="spacing" textLength="91" x="373.0242" y="253.4808">create timeline</text><ellipse cx="421.257" cy="319.8514" fill="#FEFECE" filter="url(#foxcv4zvnoxbb)" rx="82.257" ry="18.8514" style="stroke:#A80036;stroke-width:1.5;"/><text fill="#000000" font-family="sans-serif" font-size="14" lengthAdjust="spacing" textLength="115" x="360.757" y="324.2274">create study group</text><ellipse cx="421.62" cy="394.024" fill="#FEFECE" filter="url(#foxcv4zvnoxbb)" rx="88.12" ry="20.024" style="stroke:#A80036;stroke-width:1.5;"/><text fill="#000000" font-family="sans-serif" font-size="14" lengthAdjust="spacing" textLength="130" x="353.62" y="398.4">add event to timeline</text><ellipse cx="421.3139" cy="472.8628" fill="#FEFECE" filter="url(#foxcv4zvnoxbb)" rx="104.8139" ry="23.3628" style="stroke:#A80036;stroke-width:1.5;"/><text fill="#000000" font-family="sans-serif" font-size="14" lengthAdjust="spacing" textLength="170" x="333.7197" y="477.0993">add timeline to study group</text><ellipse cx="421.6515" cy="555.8303" fill="#FEFECE" filter="url(#foxcv4zvnoxbb)" rx="109.6515" ry="24.3303" style="stroke:#A80036;stroke-width:1.5;"/><text fill="#000000" font-family="sans-serif" font-size="14" lengthAdjust="spacing" textLength="181" x="329.7349" y="559.6279">enroll student to study group</text><!--MD5=[29fe19ce294944fa80f389ae9bd987a4]
reverse link User to Student--><path d="M38.45,418.74 C52.08,374.33 72.17,313.18 94,261 C110.54,221.46 132.94,178.05 149.49,147.42 " fill="none" id="User-backto-Student" style="stroke:#A80036;stroke-width:1.0;"/><polygon fill="none" points="45.06,421.06,32.56,438.17,31.66,417,45.06,421.06" style="stroke:#A80036;stroke-width:1.0;"/><!--MD5=[d87c224b488f6c9759d0a77cb4053101]
reverse link User to Teacher--><path d="M45.14,440.67 C58.38,421.06 75.72,397.63 94,379 C110.65,362.04 132.42,345.98 148.73,334.91 " fill="none" id="User-backto-Teacher" style="stroke:#A80036;stroke-width:1.0;"/><polygon fill="none" points="50.82,444.77,34.01,457.68,39.1,437.11,50.82,444.77" style="stroke:#A80036;stroke-width:1.0;"/><!--MD5=[bc81ebb8a732e08f29a60712843ac489]
link User to login--><path d="M34.26,473.47 C48.98,466.52 73.04,455.28 94,446 C109.7,439.05 127.31,431.57 141.82,425.49 " fill="none" id="User-to-login" style="stroke:#A80036;stroke-width:1.0;"/><polygon fill="#A80036" points="146.62,423.49,136.7736,423.27,142.0067,425.4181,139.8586,430.6513,146.62,423.49" style="stroke:#A80036;stroke-width:1.0;"/><!--MD5=[94954b1ac4c1a25db536747d7e96451c]
link User to logout--><path d="M34.21,480 C54.95,480 95.25,480 126.93,480 " fill="none" id="User-to-logout" style="stroke:#A80036;stroke-width:1.0;"/><polygon fill="#A80036" points="131.93,480,122.93,476,126.93,480,122.93,484,131.93,480" style="stroke:#A80036;stroke-width:1.0;"/><!--MD5=[5a8f97d88e2c39c1c4aefadaa2f4f750]
link User to register--><path d="M34.26,486.53 C48.98,493.48 73.04,504.72 94,514 C108.25,520.31 124.07,527.05 137.72,532.78 " fill="none" id="User-to-register" style="stroke:#A80036;stroke-width:1.0;"/><polygon fill="#A80036" points="142.64,534.85,135.8975,527.6709,138.0318,532.9097,132.7931,535.044,142.64,534.85" style="stroke:#A80036;stroke-width:1.0;"/><!--MD5=[8dcfad7e204dd1f6457dee13d2a7e312]
link User to view timeline--><path d="M34.05,505.81 C46.92,528.21 68.12,560.23 94,581 C103.37,588.52 114.67,594.7 125.72,599.63 " fill="none" id="User-to-view timeline" style="stroke:#A80036;stroke-width:1.0;"/><polygon fill="#A80036" points="130.43,601.66,123.7523,594.4206,125.8395,599.6784,120.5817,601.7655,130.43,601.66" style="stroke:#A80036;stroke-width:1.0;"/><!--MD5=[dc66ecee55dba55bfe25d2f3f48d1f91]
link User to view study group--><path d="M29.6,521.6 C39.69,559.07 59.32,613.55 94,649 C101.69,656.86 111.41,663.18 121.37,668.19 " fill="none" id="User-to-view study group" style="stroke:#A80036;stroke-width:1.0;"/><polygon fill="#A80036" points="125.95,670.4,119.5827,662.8862,121.4469,668.2271,116.106,670.0912,125.95,670.4" style="stroke:#A80036;stroke-width:1.0;"/><!--MD5=[5ec3bf96afb378331f3fe484ebd751ed]
link Student to add comment to timeline--><path d="M196.75,99.71 C233.47,87.94 307,64.37 359.76,47.47 " fill="none" id="Student-to-add comment to timeline" style="stroke:#A80036;stroke-width:1.0;"/><polygon fill="#A80036" points="364.8,45.85,355.0078,44.795,360.0397,47.3796,357.4551,52.4115,364.8,45.85" style="stroke:#A80036;stroke-width:1.0;"/><!--MD5=[2cca75a2562d9fb93147cc00328a7631]
link Student to search among all events--><path d="M196.75,107 C224.98,107 274.98,107 320.56,107 " fill="none" id="Student-to-search among all events" style="stroke:#A80036;stroke-width:1.0;"/><polygon fill="#A80036" points="325.81,107,316.81,103,320.81,107,316.81,111,325.81,107" style="stroke:#A80036;stroke-width:1.0;"/><!--MD5=[3ca89d4725fa4b16dcca7d904579686f]
link Teacher to create event--><path d="M197.15,298.05 C223.23,274.38 267.77,236.99 312,214 C329.21,205.05 349.19,197.97 367.29,192.63 " fill="none" id="Teacher-to-create event" style="stroke:#A80036;stroke-width:1.0;"/><polygon fill="#A80036" points="372.34,191.17,362.5837,189.8232,367.5362,192.5568,364.8026,197.5093,372.34,191.17" style="stroke:#A80036;stroke-width:1.0;"/><!--MD5=[f9fa270c2c6a93ab0d7d06df07727b10]
link Teacher to create timeline--><path d="M197.19,313.32 C236.43,302.02 316.81,278.86 369.67,263.64 " fill="none" id="Teacher-to-create timeline" style="stroke:#A80036;stroke-width:1.0;"/><polygon fill="#A80036" points="374.69,262.19,364.9337,260.8432,369.8862,263.5768,367.1526,268.5293,374.69,262.19" style="stroke:#A80036;stroke-width:1.0;"/><!--MD5=[0bd84ecf88cc2b492a9c9adf915505c8]
link Teacher to create study group--><path d="M197.19,320 C228.24,320 285.04,320 333.58,320 " fill="none" id="Teacher-to-create study group" style="stroke:#A80036;stroke-width:1.0;"/><polygon fill="#A80036" points="338.85,320,329.85,316,333.85,320,329.85,324,338.85,320" style="stroke:#A80036;stroke-width:1.0;"/><!--MD5=[f4b5761cd7dc40b7bf94708da993b9c5]
link Teacher to add event to timeline--><path d="M197.19,326.96 C234.69,338.22 309.76,360.76 362.47,376.58 " fill="none" id="Teacher-to-add event to timeline" style="stroke:#A80036;stroke-width:1.0;"/><polygon fill="#A80036" points="367.5,378.09,360.0377,371.6623,362.7128,376.6467,357.7285,379.3218,367.5,378.09" style="stroke:#A80036;stroke-width:1.0;"/><!--MD5=[023f32dbfef59402543e22be5a702e32]
link Teacher to add timeline to study group--><path d="M197.18,336.9 C212.86,348.49 233.92,364.36 252,379 C279.42,401.21 281.76,412.81 312,431 C325.37,439.05 340.56,446.06 355.24,451.94 " fill="none" id="Teacher-to-add timeline to study group" style="stroke:#A80036;stroke-width:1.0;"/><polygon fill="#A80036" points="360.2,453.88,353.2919,446.8602,355.5478,452.0478,350.3603,454.3037,360.2,453.88" style="stroke:#A80036;stroke-width:1.0;"/><!--MD5=[499b3970333d8c3c164b68e7dfee32a1]
link Teacher to enroll student to study group--><path d="M197.35,333.22 C214.34,343.8 236.91,359.98 252,379 C292.81,430.44 264.45,468.72 312,514 C321.23,522.79 332.51,529.8 344.26,535.37 " fill="none" id="Teacher-to-enroll student to study group" style="stroke:#A80036;stroke-width:1.0;"/><polygon fill="#A80036" points="348.96,537.52,342.4219,530.1543,344.4082,535.451,339.1115,537.4372,348.96,537.52" style="stroke:#A80036;stroke-width:1.0;"/><!--MD5=[ec21a1c8d76ed895f6eaf46cd4536731]
@startuml
left to right direction

actor User
actor Student
actor Teacher

User <|- - Student
User <|- - Teacher

User - -> (login)
User - -> (logout)
User - -> (register)
User - -> (view timeline)
User - -> (view study group)

Student - -> (add comment to timeline)
Student - -> (search among all events)

Teacher - -> (create event)
Teacher - -> (create timeline)
Teacher - -> (create study group)
Teacher - -> (add event to timeline)
Teacher - -> (add timeline to study group)
Teacher - -> (enroll student to study group)
@enduml

PlantUML version 1.2021.4(Sun Apr 04 10:49:39 CEST 2021)
(GPL source distribution)
Java Runtime: OpenJDK Runtime Environment
JVM: OpenJDK 64-Bit Server VM
Default Encoding: UTF-8
Language: en
Country: US
--></g></svg>